{
  "source": "C:\\Users\\Peter\\Desktop\\stuff\\MIUN\\quantitative_research\\video_compression\\videos\\UVG\\ShakeNDry_1920x1080_120fps_420_8bit_YUV.y4m",
  "output": "C:\\Users\\Peter\\Desktop\\stuff\\MIUN\\quantitative_research\\video_compression\\compressed_videos\\UVG\\av1\\8\\ShakeNDry_1920x1080_120fps_420_8bit_YUV_av1.mkv",
  "codec": "av1",
  "ok": "[yuv4mpegpipe @ 00000241d24a5380] Stream #0: not enough frames to estimate rate; consider increasing probesize\nInput #0, yuv4mpegpipe, from 'C:\\Users\\Peter\\Desktop\\stuff\\MIUN\\quantitative_research\\video_compression\\videos\\UVG\\ShakeNDry_1920x1080_120fps_420_8bit_YUV.y4m':\n  Duration: 00:00:02.50, start: 0.000000, bitrate: 2985989 kb/s\n  Stream #0:0: Video: rawvideo (I420 / 0x30323449), yuv420p(progressive), 1920x1080, 120 fps, 120 tbr, 120 tbn\n[out#0/matroska @ 00000241d24a90c0] Codec AVOption b:a (set bitrate (in bits/s)) has not been used for any stream. The most likely reason is either wrong type (e.g. a video option with no video streams) or that it is a private option of some decoder which was not actually used for any stream.\nStream mapping:\n  Stream #0:0 -> #0:0 (rawvideo (native) -> av1 (libsvtav1))\nPress [q] to stop, [?] for help\nSvt[info]: -------------------------------------------\nSvt[info]: SVT [version]:\tSVT-AV1 Encoder Lib v3.1.0-19-g6ecfe8ec\nSvt[info]: SVT [build]  :\tGCC 15.2.0\t 64 bit\nSvt[info]: LIB Build date: Aug 17 2025 11:37:13\nSvt[info]: -------------------------------------------\n[libsvtav1 @ 00000241d24ac1c0] Specified chroma sample location center is unsupported on the AV1 bit stream level. Usage of a container that allows passing this information - such as Matroska - is recommended.\nSvt[info]: Level of Parallelism: 5\nSvt[info]: Number of PPCS 93\nSvt[info]: [asm level on system : up to avx2]\nSvt[info]: [asm level selected : up to avx2]\nSvt[info]: -------------------------------------------\nSvt[info]: SVT [config]: main profile\ttier (auto)\tlevel (auto)\nSvt[info]: SVT [config]: width / height / fps numerator / fps denominator \t\t: 1920 / 1080 / 120 / 1\nSvt[info]: SVT [config]: bit-depth / color format \t\t\t\t\t: 8 / YUV420\nSvt[info]: SVT [config]: preset / tune / pred struct \t\t\t\t\t: 4 / PSNR / random access\nSvt[info]: SVT [config]: gop size / mini-gop size / key-frame type \t\t\t: 641 / 16 / key frame\nSvt[info]: SVT [config]: BRC mode / target bitrate (kbps)\t\t\t\t: VBR / 8000 \nSvt[info]: SVT [config]: AQ mode / Variance Boost \t\t\t\t\t: 2 / 0\nSvt[info]: SVT [config]: sharpness / luminance-based QP bias \t\t\t\t: 0 / 0\nSvt[info]: SVT [config]: QP scale compress strength \t\t\t\t\t: 0\nSvt[info]: -------------------------------------------\nOutput #0, matroska, to 'C:\\Users\\Peter\\Desktop\\stuff\\MIUN\\quantitative_research\\video_compression\\compressed_videos\\UVG\\av1\\8\\ShakeNDry_1920x1080_120fps_420_8bit_YUV_av1.mkv':\n  Metadata:\n    encoder         : Lavf62.3.100\n  Stream #0:0: Video: av1 (AV01 / 0x31305641), yuv420p(tv, progressive), 1920x1080, q=2-31, 8000 kb/s, 120 fps, 1k tbn\n    Metadata:\n      encoder         : Lavc62.11.100 libsvtav1\n    Side data:\n      cpb: bitrate max/min/avg: 0/0/8000000 buffer size: 8000000 vbv_delay: N/A\nframe=    0 fps=0.0 q=0.0 size=       0KiB time=N/A bitrate=N/A speed=N/A elapsed=0:00:05.57    \nframe=    0 fps=0.0 q=0.0 size=       0KiB time=N/A bitrate=N/A speed=N/A elapsed=0:00:06.09    \nframe=    0 fps=0.0 q=0.0 size=       0KiB time=N/A bitrate=N/A speed=N/A elapsed=0:00:06.63    \nframe=    0 fps=0.0 q=0.0 size=       0KiB time=N/A bitrate=N/A speed=N/A elapsed=0:00:07.15    \nframe=    0 fps=0.0 q=0.0 size=       0KiB time=N/A bitrate=N/A speed=N/A elapsed=0:00:07.65    \nframe=    0 fps=0.0 q=0.0 size=       0KiB time=N/A bitrate=N/A speed=N/A elapsed=0:00:08.17    \nframe=    0 fps=0.0 q=0.0 size=       0KiB time=N/A bitrate=N/A speed=N/A elapsed=0:00:08.73    \nframe=    0 fps=0.0 q=0.0 size=       0KiB time=N/A bitrate=N/A speed=N/A elapsed=0:00:09.25    \nframe=    0 fps=0.0 q=0.0 size=       0KiB time=N/A bitrate=N/A speed=N/A elapsed=0:00:09.79    \nframe=    0 fps=0.0 q=0.0 size=       0KiB time=N/A bitrate=N/A speed=N/A elapsed=0:00:10.37    \nframe=    0 fps=0.0 q=0.0 size=       0KiB time=N/A bitrate=N/A speed=N/A elapsed=0:00:10.91    \nframe=    0 fps=0.0 q=0.0 size=       0KiB time=N/A bitrate=N/A speed=N/A elapsed=0:00:11.43    \nframe=    0 fps=0.0 q=0.0 size=       0KiB time=N/A bitrate=N/A speed=N/A elapsed=0:00:12.05    \nframe=    0 fps=0.0 q=0.0 size=       0KiB time=N/A bitrate=N/A speed=N/A elapsed=0:00:12.60    \nframe=    0 fps=0.0 q=0.0 size=       0KiB time=N/A bitrate=N/A speed=N/A elapsed=0:00:13.12    \nframe=    0 fps=0.0 q=0.0 size=       0KiB time=N/A bitrate=N/A speed=N/A elapsed=0:00:13.65    \nframe=    1 fps=0.1 q=11.0 size=       1KiB time=00:00:00.00 bitrate=N/A speed=   0x elapsed=0:00:14.17    \nframe=    1 fps=0.1 q=11.0 size=       1KiB time=00:00:00.00 bitrate=N/A speed=   0x elapsed=0:00:14.69    \nframe=    1 fps=0.1 q=11.0 size=       1KiB time=00:00:00.00 bitrate=N/A speed=   0x elapsed=0:00:15.21    \nframe=    1 fps=0.1 q=11.0 size=       1KiB time=00:00:00.00 bitrate=N/A speed=   0x elapsed=0:00:15.73    \nframe=    1 fps=0.1 q=11.0 size=       1KiB time=00:00:00.00 bitrate=N/A speed=   0x elapsed=0:00:16.25    \nframe=    1 fps=0.1 q=11.0 size=       1KiB time=00:00:00.00 bitrate=N/A speed=   0x elapsed=0:00:16.77    \nframe=    1 fps=0.1 q=11.0 size=       1KiB time=00:00:00.00 bitrate=N/A speed=   0x elapsed=0:00:17.34    \nframe=    2 fps=0.1 q=44.0 size=       1KiB time=00:00:00.00 bitrate= 537.6kbits/s speed=0.000465x elapsed=0:00:17.91    \nframe=    4 fps=0.2 q=44.0 size=       1KiB time=00:00:00.01 bitrate= 268.8kbits/s speed=0.000904x elapsed=0:00:18.42    \nframe=    4 fps=0.2 q=44.0 size=       1KiB time=00:00:00.02 bitrate= 179.2kbits/s speed=0.00132x elapsed=0:00:18.97    \nframe=    5 fps=0.3 q=39.0 size=       1KiB time=00:00:00.03 bitrate= 134.4kbits/s speed=0.00171x elapsed=0:00:19.52    \nframe=    7 fps=0.3 q=39.0 size=       1KiB time=00:00:00.05 bitrate=  89.6kbits/s speed=0.00249x elapsed=0:00:20.09    \nframe=    7 fps=0.3 q=39.0 size=       1KiB time=00:00:00.05 bitrate=  89.6kbits/s speed=0.00243x elapsed=0:00:20.60    \nframe=    8 fps=0.4 q=44.0 size=       1KiB time=00:00:00.05 bitrate=  76.8kbits/s speed=0.00276x elapsed=0:00:21.10    \nframe=    8 fps=0.4 q=44.0 size=       1KiB time=00:00:00.05 bitrate=  76.8kbits/s speed=0.0027x elapsed=0:00:21.64    \nframe=    9 fps=0.4 q=36.0 size=       1KiB time=00:00:00.06 bitrate=  67.2kbits/s speed=0.003x elapsed=0:00:22.19    \nframe=   10 fps=0.4 q=44.0 size=       1KiB time=00:00:00.07 bitrate=  59.7kbits/s speed=0.0033x elapsed=0:00:22.73    \nframe=   11 fps=0.5 q=40.0 size=       1KiB time=00:00:00.08 bitrate=  53.8kbits/s speed=0.00358x elapsed=0:00:23.27    \nframe=   11 fps=0.5 q=40.0 size=       1KiB time=00:00:00.08 bitrate=  53.8kbits/s speed=0.0035x elapsed=0:00:23.78    \nframe=   12 fps=0.5 q=44.0 size=       1KiB time=00:00:00.09 bitrate=  48.9kbits/s speed=0.00377x elapsed=0:00:24.29    \nframe=   13 fps=0.5 q=38.0 size=       1KiB time=00:00:00.10 bitrate=  44.8kbits/s speed=0.00403x elapsed=0:00:24.82    \nframe=   15 fps=0.6 q=40.0 size=       1KiB time=00:00:00.11 bitrate=  38.4kbits/s speed=0.00461x elapsed=0:00:25.33    \nframe=   16 fps=0.6 q=44.0 size=       1KiB time=00:00:00.12 bitrate=  35.8kbits/s speed=0.00484x elapsed=0:00:25.84    \nframe=   17 fps=0.6 q=28.0 size=       1KiB time=00:00:00.13 bitrate=  33.6kbits/s speed=0.00506x elapsed=0:00:26.36    \nframe=   18 fps=0.7 q=44.0 size=       1KiB time=00:00:00.14 bitrate=  31.6kbits/s speed=0.00527x elapsed=0:00:26.88    \nframe=   19 fps=0.7 q=40.0 size=       1KiB time=00:00:00.15 bitrate=  29.9kbits/s speed=0.00547x elapsed=0:00:27.40    \nframe=   19 fps=0.7 q=40.0 size=       1KiB time=00:00:00.15 bitrate=  29.9kbits/s speed=0.00537x elapsed=0:00:27.92    \nframe=   20 fps=0.7 q=44.0 size=       1KiB time=00:00:00.15 bitrate=  28.3kbits/s speed=0.00557x elapsed=0:00:28.43    \nframe=   20 fps=0.7 q=44.0 size=       1KiB time=00:00:00.15 bitrate=  28.3kbits/s speed=0.00547x elapsed=0:00:28.94    \nframe=   22 fps=0.7 q=44.0 size=       1KiB time=00:00:00.17 bitrate=  25.6kbits/s speed=0.00594x elapsed=0:00:29.45    \nframe=   22 fps=0.7 q=44.0 size=       1KiB time=00:00:00.17 bitrate=  25.6kbits/s speed=0.00584x elapsed=0:00:29.97    \nframe=   22 fps=0.7 q=44.0 size=       1KiB time=00:00:00.17 bitrate=  25.6kbits/s speed=0.00574x elapsed=0:00:30.49    \nframe=   23 fps=0.7 q=40.0 size=       1KiB time=00:00:00.18 bitrate=  24.4kbits/s speed=0.00591x elapsed=0:00:31.00    \nframe=   24 fps=0.8 q=44.0 size=       1KiB time=00:00:00.19 bitrate=  23.4kbits/s speed=0.00608x elapsed=0:00:31.52    \nframe=   24 fps=0.7 q=44.0 size=       1KiB time=00:00:00.19 bitrate=  23.4kbits/s speed=0.00598x elapsed=0:00:32.03    \nframe=   27 fps=0.8 q=40.0 size=       1KiB time=00:00:00.21 bitrate=  20.7kbits/s speed=0.00666x elapsed=0:00:32.55    \nframe=   27 fps=0.8 q=40.0 size=       1KiB time=00:00:00.21 bitrate=  20.7kbits/s speed=0.00655x elapsed=0:00:33.07    \nframe=   28 fps=0.8 q=44.0 size=       1KiB time=00:00:00.22 bitrate=  19.9kbits/s speed=0.0067x elapsed=0:00:33.58    \nframe=   28 fps=0.8 q=44.0 size=       1KiB time=00:00:00.22 bitrate=  19.9kbits/s speed=0.0066x elapsed=0:00:34.10    \nframe=   31 fps=0.9 q=39.0 size=       1KiB time=00:00:00.25 bitrate=  17.9kbits/s speed=0.00722x elapsed=0:00:34.60    \nframe=   31 fps=0.9 q=39.0 size=       1KiB time=00:00:00.25 bitrate=  17.9kbits/s speed=0.00712x elapsed=0:00:35.12    \nframe=   34 fps=1.0 q=44.0 size=       1KiB time=00:00:00.27 bitrate=  16.3kbits/s speed=0.00772x elapsed=0:00:35.64    \nframe=   35 fps=1.0 q=40.0 size=       1KiB time=00:00:00.28 bitrate=  15.8kbits/s speed=0.00783x elapsed=0:00:36.16    \nframe=   35 fps=1.0 q=40.0 size=       1KiB time=00:00:00.28 bitrate=  15.8kbits/s speed=0.00772x elapsed=0:00:36.68    \nframe=   36 fps=1.0 q=44.0 size=       1KiB time=00:00:00.29 bitrate=  15.4kbits/s speed=0.00784x elapsed=0:00:37.19    \nframe=   37 fps=1.0 q=38.0 size=       1KiB time=00:00:00.30 bitrate=  14.9kbits/s speed=0.00796x elapsed=0:00:37.70    \nframe=   38 fps=1.0 q=44.0 size=       1KiB time=00:00:00.30 bitrate=  14.5kbits/s speed=0.00807x elapsed=0:00:38.22    \nframe=   38 fps=1.0 q=44.0 size=       1KiB time=00:00:00.30 bitrate=  14.5kbits/s speed=0.00796x elapsed=0:00:38.74    \nframe=   38 fps=1.0 q=44.0 size=       1KiB time=00:00:00.30 bitrate=  14.5kbits/s speed=0.00786x elapsed=0:00:39.25    \nframe=   38 fps=1.0 q=44.0 size=       1KiB time=00:00:00.30 bitrate=  14.5kbits/s speed=0.00775x elapsed=0:00:39.78    \nframe=   39 fps=1.0 q=38.0 size=       1KiB time=00:00:00.31 bitrate=  14.1kbits/s speed=0.00786x elapsed=0:00:40.28    \nframe=   39 fps=1.0 q=38.0 size=       1KiB time=00:00:00.31 bitrate=  14.1kbits/s speed=0.00776x elapsed=0:00:40.81    \nframe=   39 fps=0.9 q=38.0 size=       1KiB time=00:00:00.31 bitrate=  14.1kbits/s speed=0.00766x elapsed=0:00:41.32    \nframe=   40 fps=1.0 q=44.0 size=       1KiB time=00:00:00.32 bitrate=  13.8kbits/s speed=0.00777x elapsed=0:00:41.82    \nframe=   41 fps=1.0 q=35.0 size=       1KiB time=00:00:00.33 bitrate=  13.4kbits/s speed=0.00787x elapsed=0:00:42.34    \nframe=   42 fps=1.0 q=44.0 size=       1KiB time=00:00:00.34 bitrate=  13.1kbits/s speed=0.00797x elapsed=0:00:42.86    \nframe=   43 fps=1.0 q=39.0 size=       1KiB time=00:00:00.35 bitrate=  12.8kbits/s speed=0.00807x elapsed=0:00:43.37    \nframe=   43 fps=1.0 q=39.0 size=       1KiB time=00:00:00.35 bitrate=  12.8kbits/s speed=0.00797x elapsed=0:00:43.89    \nframe=   44 fps=1.0 q=43.0 size=       1KiB time=00:00:00.35 bitrate=  12.5kbits/s speed=0.00807x elapsed=0:00:44.40    \nframe=   44 fps=1.0 q=43.0 size=       1KiB time=00:00:00.35 bitrate=  12.5kbits/s speed=0.00798x elapsed=0:00:44.93    \nframe=   47 fps=1.0 q=38.0 size=       1KiB time=00:00:00.38 bitrate=  11.7kbits/s speed=0.00844x elapsed=0:00:45.43    \nframe=   47 fps=1.0 q=38.0 size=       1KiB time=00:00:00.38 bitrate=  11.7kbits/s speed=0.00834x elapsed=0:00:45.95    \nframe=   48 fps=1.0 q=43.0 size=       1KiB time=00:00:00.39 bitrate=  11.4kbits/s speed=0.00843x elapsed=0:00:46.47    \nframe=   48 fps=1.0 q=43.0 size=       1KiB time=00:00:00.39 bitrate=  11.4kbits/s speed=0.00833x elapsed=0:00:46.99    \nframe=   49 fps=1.0 q=26.0 size=       1KiB time=00:00:00.40 bitrate=  11.2kbits/s speed=0.00842x elapsed=0:00:47.50    \nframe=   50 fps=1.0 q=43.0 size=       1KiB time=00:00:00.40 bitrate=  11.0kbits/s speed=0.0085x elapsed=0:00:48.02    \nframe=   51 fps=1.1 q=39.0 size=       1KiB time=00:00:00.41 bitrate=  10.8kbits/s speed=0.00858x elapsed=0:00:48.53    \nframe=   51 fps=1.0 q=39.0 size=       1KiB time=00:00:00.41 bitrate=  10.8kbits/s speed=0.00849x elapsed=0:00:49.05    \nframe=   51 fps=1.0 q=39.0 size=       1KiB time=00:00:00.41 bitrate=  10.8kbits/s speed=0.00841x elapsed=0:00:49.56    \nframe=   52 fps=1.0 q=43.0 size=       1KiB time=00:00:00.42 bitrate=  10.5kbits/s speed=0.00849x elapsed=0:00:50.08    \nframe=   53 fps=1.0 q=37.0 size=       1KiB time=00:00:00.43 bitrate=  10.3kbits/s speed=0.00856x elapsed=0:00:50.60    \nframe=   54 fps=1.1 q=43.0 size=       1KiB time=00:00:00.44 bitrate=  10.1kbits/s speed=0.00864x elapsed=0:00:51.11    \nframe=   54 fps=1.0 q=43.0 size=       1KiB time=00:00:00.44 bitrate=  10.1kbits/s speed=0.00855x elapsed=0:00:51.63    \nframe=   55 fps=1.1 q=39.0 size=       1KiB time=00:00:00.45 bitrate=  10.0kbits/s speed=0.00863x elapsed=0:00:52.14    \nframe=   55 fps=1.0 q=39.0 size=       1KiB time=00:00:00.45 bitrate=  10.0kbits/s speed=0.00854x elapsed=0:00:52.66    \nframe=   56 fps=1.1 q=43.0 size=       1KiB time=00:00:00.45 bitrate=   9.8kbits/s speed=0.00862x elapsed=0:00:53.17    \nframe=   58 fps=1.1 q=43.0 size=       1KiB time=00:00:00.47 bitrate=   9.4kbits/s speed=0.00885x elapsed=0:00:53.69    \nframe=   59 fps=1.1 q=39.0 size=       1KiB time=00:00:00.48 bitrate=   9.3kbits/s speed=0.00892x elapsed=0:00:54.20    \nframe=   59 fps=1.1 q=39.0 size=       1KiB time=00:00:00.48 bitrate=   9.3kbits/s speed=0.00883x elapsed=0:00:54.72    \nframe=   60 fps=1.1 q=43.0 size=       1KiB time=00:00:00.49 bitrate=   9.1kbits/s speed=0.0089x elapsed=0:00:55.23    \nframe=   61 fps=1.1 q=35.0 size=       1KiB time=00:00:00.50 bitrate=   9.0kbits/s speed=0.00896x elapsed=0:00:55.78    \nframe=   63 fps=1.1 q=38.0 size=       1KiB time=00:00:00.51 bitrate=   8.7kbits/s speed=0.00918x elapsed=0:00:56.30    \nframe=   63 fps=1.1 q=38.0 size=       1KiB time=00:00:00.51 bitrate=   8.7kbits/s speed=0.00909x elapsed=0:00:56.81    \nframe=   65 fps=1.1 q=23.0 size=       1KiB time=00:00:00.53 bitrate=   8.4kbits/s speed=0.0093x elapsed=0:00:57.34    \nframe=   67 fps=1.2 q=39.0 size=       1KiB time=00:00:00.55 bitrate=   8.1kbits/s speed=0.00951x elapsed=0:00:57.84    \nframe=   67 fps=1.1 q=39.0 size=       1KiB time=00:00:00.55 bitrate=   8.1kbits/s speed=0.00942x elapsed=0:00:58.36    \nframe=   68 fps=1.2 q=43.0 size=       1KiB time=00:00:00.55 bitrate=   8.0kbits/s speed=0.00948x elapsed=0:00:58.88    \nframe=   69 fps=1.2 q=37.0 size=       1KiB time=00:00:00.56 bitrate=   7.9kbits/s speed=0.00954x elapsed=0:00:59.39    \nframe=   70 fps=1.2 q=43.0 size=       1KiB time=00:00:00.57 bitrate=   7.8kbits/s speed=0.00959x elapsed=0:00:59.94    \nframe=   70 fps=1.2 q=43.0 size=       1KiB time=00:00:00.57 bitrate=   7.8kbits/s speed=0.00949x elapsed=0:01:00.56    \nframe=   70 fps=1.1 q=43.0 size=       1KiB time=00:00:00.57 bitrate=   7.8kbits/s speed=0.00941x elapsed=0:01:01.08    \nframe=   71 fps=1.2 q=36.0 size=       1KiB time=00:00:00.58 bitrate=   7.7kbits/s speed=0.00947x elapsed=0:01:01.59    \nframe=   71 fps=1.1 q=36.0 size=       1KiB time=00:00:00.58 bitrate=   7.7kbits/s speed=0.00939x elapsed=0:01:02.11    \nframe=   73 fps=1.2 q=31.0 size=       1KiB time=00:00:00.60 bitrate=   7.5kbits/s speed=0.00958x elapsed=0:01:02.63    \nframe=   73 fps=1.2 q=31.0 size=       1KiB time=00:00:00.60 bitrate=   7.5kbits/s speed=0.0095x elapsed=0:01:03.15    \nframe=   74 fps=1.2 q=42.0 size=       1KiB time=00:00:00.60 bitrate=   7.4kbits/s speed=0.00955x elapsed=0:01:03.66    \nframe=   75 fps=1.2 q=38.0 size=       1KiB time=00:00:00.61 bitrate=   7.3kbits/s speed=0.00961x elapsed=0:01:04.17    \nframe=   75 fps=1.2 q=38.0 size=       1KiB time=00:00:00.61 bitrate=   7.3kbits/s speed=0.00953x elapsed=0:01:04.69    \nframe=   76 fps=1.2 q=42.0 size=       1KiB time=00:00:00.62 bitrate=   7.2kbits/s speed=0.00959x elapsed=0:01:05.20    \nframe=   77 fps=1.2 q=35.0 size=       1KiB time=00:00:00.63 bitrate=   7.1kbits/s speed=0.00964x elapsed=0:01:05.72    \nframe=   79 fps=1.2 q=37.0 size=       1KiB time=00:00:00.65 bitrate=   6.9kbits/s speed=0.00981x elapsed=0:01:06.24    \nframe=   80 fps=1.2 q=42.0 size=       1KiB time=00:00:00.65 bitrate=   6.8kbits/s speed=0.00986x elapsed=0:01:06.75    \nframe=   81 fps=1.2 q=19.0 size=       1KiB time=00:00:00.66 bitrate=   6.7kbits/s speed=0.00991x elapsed=0:01:07.27    \nframe=   82 fps=1.2 q=42.0 size=       1KiB time=00:00:00.67 bitrate=   6.6kbits/s speed=0.00996x elapsed=0:01:07.78    \nframe=   83 fps=1.2 q=38.0 size=       1KiB time=00:00:00.68 bitrate=   6.6kbits/s speed=0.01x elapsed=0:01:08.30    \nframe=   83 fps=1.2 q=38.0 size=       1KiB time=00:00:00.68 bitrate=   6.6kbits/s speed=0.00993x elapsed=0:01:08.82    \nframe=   84 fps=1.2 q=42.0 size=       1KiB time=00:00:00.69 bitrate=   6.5kbits/s speed=0.00998x elapsed=0:01:09.33    \nframe=   84 fps=1.2 q=42.0 size=       1KiB time=00:00:00.69 bitrate=   6.5kbits/s speed=0.0099x elapsed=0:01:09.85    \nframe=   85 fps=1.2 q=36.0 size=       1KiB time=00:00:00.70 bitrate=   6.4kbits/s speed=0.00995x elapsed=0:01:10.36    \nframe=   86 fps=1.2 q=42.0 size=       1KiB time=00:00:00.70 bitrate=   6.3kbits/s speed=0.00999x elapsed=0:01:10.88    \nframe=   86 fps=1.2 q=42.0 size=       1KiB time=00:00:00.70 bitrate=   6.3kbits/s speed=0.00992x elapsed=0:01:11.39    \nframe=   86 fps=1.2 q=42.0 size=       1KiB time=00:00:00.70 bitrate=   6.3kbits/s speed=0.00985x elapsed=0:01:11.90    \nframe=   87 fps=1.2 q=35.0 size=       1KiB time=00:00:00.71 bitrate=   6.3kbits/s speed=0.0099x elapsed=0:01:12.42    \nframe=   87 fps=1.2 q=35.0 size=       1KiB time=00:00:00.71 bitrate=   6.3kbits/s speed=0.00982x elapsed=0:01:12.94    \nframe=   87 fps=1.2 q=35.0 size=       1KiB time=00:00:00.71 bitrate=   6.3kbits/s speed=0.00975x elapsed=0:01:13.46    \nframe=   88 fps=1.2 q=42.0 size=       1KiB time=00:00:00.72 bitrate=   6.2kbits/s speed=0.0098x elapsed=0:01:13.97    \nframe=   90 fps=1.2 q=42.0 size=       1KiB time=00:00:00.74 bitrate=   6.0kbits/s speed=0.00996x elapsed=0:01:14.49    \nframe=   91 fps=1.2 q=38.0 size=       1KiB time=00:00:00.75 bitrate=   6.0kbits/s speed=0.01x elapsed=0:01:15.02    \nframe=   91 fps=1.2 q=38.0 size=       1KiB time=00:00:00.75 bitrate=   6.0kbits/s speed=0.00993x elapsed=0:01:15.53    \nframe=   93 fps=1.2 q=34.0 size=       1KiB time=00:00:00.76 bitrate=   5.8kbits/s speed=0.0101x elapsed=0:01:16.05    \nframe=   94 fps=1.2 q=41.0 size=       1KiB time=00:00:00.77 bitrate=   5.8kbits/s speed=0.0101x elapsed=0:01:16.56    \nframe=   95 fps=1.2 q=36.0 size=       1KiB time=00:00:00.78 bitrate=   5.7kbits/s speed=0.0102x elapsed=0:01:17.07    \nframe=   95 fps=1.2 q=36.0 size=       1KiB time=00:00:00.78 bitrate=   5.7kbits/s speed=0.0101x elapsed=0:01:17.59    \nframe=   96 fps=1.2 q=41.0 size=       1KiB time=00:00:00.79 bitrate=   5.7kbits/s speed=0.0101x elapsed=0:01:18.11    \nframe=   97 fps=1.2 q=18.0 size=       1KiB time=00:00:00.80 bitrate=   5.6kbits/s speed=0.0102x elapsed=0:01:18.63    \nframe=   98 fps=1.2 q=41.0 size=       1KiB time=00:00:00.80 bitrate=   5.5kbits/s speed=0.0102x elapsed=0:01:19.14    \nframe=   98 fps=1.2 q=41.0 size=       1KiB time=00:00:00.80 bitrate=   5.5kbits/s speed=0.0101x elapsed=0:01:19.66    \nframe=   99 fps=1.2 q=38.0 size=       1KiB time=00:00:00.81 bitrate=   5.5kbits/s speed=0.0102x elapsed=0:01:20.18    \nframe=   99 fps=1.2 q=38.0 size=       1KiB time=00:00:00.81 bitrate=   5.5kbits/s speed=0.0101x elapsed=0:01:20.69    \nframe=  100 fps=1.2 q=41.0 size=       1KiB time=00:00:00.82 bitrate=   5.4kbits/s speed=0.0102x elapsed=0:01:21.21    \nframe=  101 fps=1.2 q=35.0 size=       1KiB time=00:00:00.83 bitrate=   5.4kbits/s speed=0.0102x elapsed=0:01:21.72    \nframe=  102 fps=1.2 q=41.0 size=       1KiB time=00:00:00.84 bitrate=   5.3kbits/s speed=0.0102x elapsed=0:01:22.23    \nframe=  102 fps=1.2 q=41.0 size=       1KiB time=00:00:00.84 bitrate=   5.3kbits/s speed=0.0102x elapsed=0:01:22.75    \nframe=  102 fps=1.2 q=41.0 size=       1KiB time=00:00:00.84 bitrate=   5.3kbits/s speed=0.0101x elapsed=0:01:23.26    \nframe=  103 fps=1.2 q=34.0 size=       1KiB time=00:00:00.85 bitrate=   5.3kbits/s speed=0.0101x elapsed=0:01:23.79    \nframe=  103 fps=1.2 q=34.0 size=       1KiB time=00:00:00.85 bitrate=   5.3kbits/s speed=0.0101x elapsed=0:01:24.30    \nframe=  104 fps=1.2 q=41.0 size=       1KiB time=00:00:00.85 bitrate=   5.2kbits/s speed=0.0101x elapsed=0:01:24.82    \nframe=  106 fps=1.2 q=40.0 size=       1KiB time=00:00:00.87 bitrate=   5.1kbits/s speed=0.0103x elapsed=0:01:25.33    \nframe=  107 fps=1.2 q=37.0 size=       1KiB time=00:00:00.88 bitrate=   5.1kbits/s speed=0.0103x elapsed=0:01:25.84    \nframe=  107 fps=1.2 q=37.0 size=       1KiB time=00:00:00.88 bitrate=   5.1kbits/s speed=0.0102x elapsed=0:01:26.36    \nframe=  107 fps=1.2 q=37.0 size=       1KiB time=00:00:00.88 bitrate=   5.1kbits/s speed=0.0102x elapsed=0:01:26.88    \nframe=  108 fps=1.2 q=40.0 size=       1KiB time=00:00:00.89 bitrate=   5.0kbits/s speed=0.0102x elapsed=0:01:27.39    \nframe=  108 fps=1.2 q=40.0 size=       1KiB time=00:00:00.89 bitrate=   5.0kbits/s speed=0.0101x elapsed=0:01:27.91    \nframe=  110 fps=1.2 q=40.0 size=       1KiB time=00:00:00.90 bitrate=   4.9kbits/s speed=0.0103x elapsed=0:01:28.43    \nframe=  112 fps=1.3 q=40.0 size=       1KiB time=00:00:00.92 bitrate=   4.8kbits/s speed=0.0104x elapsed=0:01:28.94    \nframe=  112 fps=1.3 q=40.0 size=       1KiB time=00:00:00.92 bitrate=   4.8kbits/s speed=0.0103x elapsed=0:01:29.46    \nframe=  114 fps=1.3 q=39.0 size=       1KiB time=00:00:00.94 bitrate=   4.8kbits/s speed=0.0105x elapsed=0:01:29.99    \nframe=  115 fps=1.3 q=37.0 size=       1KiB time=00:00:00.95 bitrate=   4.7kbits/s speed=0.0105x elapsed=0:01:30.51    \nframe=  115 fps=1.3 q=37.0 size=       1KiB time=00:00:00.95 bitrate=   4.7kbits/s speed=0.0104x elapsed=0:01:31.01    \nframe=  116 fps=1.3 q=39.0 size=       1KiB time=00:00:00.95 bitrate=   4.7kbits/s speed=0.0105x elapsed=0:01:31.53    \nframe=  117 fps=1.3 q=34.0 size=       1KiB time=00:00:00.96 bitrate=   4.6kbits/s speed=0.0105x elapsed=0:01:32.06    \nframe=  118 fps=1.3 q=39.0 size=       1KiB time=00:00:00.97 bitrate=   4.6kbits/s speed=0.0105x elapsed=0:01:32.57    \nframe=  118 fps=1.3 q=39.0 size=       1KiB time=00:00:00.97 bitrate=   4.6kbits/s speed=0.0105x elapsed=0:01:33.07    \nframe=  118 fps=1.3 q=39.0 size=       1KiB time=00:00:00.97 bitrate=   4.6kbits/s speed=0.0104x elapsed=0:01:33.59    \nframe=  119 fps=1.3 q=33.0 size=       1KiB time=00:00:00.98 bitrate=   4.6kbits/s speed=0.0104x elapsed=0:01:34.11    \nframe=  119 fps=1.3 q=33.0 size=       1KiB time=00:00:00.98 bitrate=   4.6kbits/s speed=0.0104x elapsed=0:01:34.64    \nframe=  121 fps=1.3 q=29.0 size=       1KiB time=00:00:01.00 bitrate=   4.5kbits/s speed=0.0105x elapsed=0:01:35.16    \nframe=  123 fps=1.3 q=36.0 size=       1KiB time=00:00:01.01 bitrate=   4.4kbits/s speed=0.0106x elapsed=0:01:35.68    \nframe=  123 fps=1.3 q=36.0 size=       1KiB time=00:00:01.01 bitrate=   4.4kbits/s speed=0.0106x elapsed=0:01:36.19    \nframe=  124 fps=1.3 q=39.0 size=       1KiB time=00:00:01.02 bitrate=   4.4kbits/s speed=0.0106x elapsed=0:01:36.70    \nframe=  125 fps=1.3 q=32.0 size=       1KiB time=00:00:01.03 bitrate=   4.3kbits/s speed=0.0106x elapsed=0:01:37.22    \nframe=  126 fps=1.3 q=39.0 size=       1KiB time=00:00:01.04 bitrate=   4.3kbits/s speed=0.0107x elapsed=0:01:37.74    \nframe=  127 fps=1.3 q=34.0 size=       1KiB time=00:00:01.05 bitrate=   4.3kbits/s speed=0.0107x elapsed=0:01:38.25    \nframe=  128 fps=1.3 q=39.0 size=       1KiB time=00:00:01.05 bitrate=   4.2kbits/s speed=0.0107x elapsed=0:01:38.76    \nframe=  130 fps=1.3 q=39.0 size=       1KiB time=00:00:01.07 bitrate=   4.2kbits/s speed=0.0108x elapsed=0:01:39.29    \nframe=  131 fps=1.3 q=37.0 size=       1KiB time=00:00:01.08 bitrate=   4.1kbits/s speed=0.0109x elapsed=0:01:39.80    \nframe=  131 fps=1.3 q=37.0 size=       1KiB time=00:00:01.08 bitrate=   4.1kbits/s speed=0.0108x elapsed=0:01:40.31    \nframe=  131 fps=1.3 q=37.0 size=       1KiB time=00:00:01.08 bitrate=   4.1kbits/s speed=0.0107x elapsed=0:01:40.83    \nframe=  131 fps=1.3 q=37.0 size=       1KiB time=00:00:01.08 bitrate=   4.1kbits/s speed=0.0107x elapsed=0:01:41.35    \nframe=  132 fps=1.3 q=39.0 size=       1KiB time=00:00:01.09 bitrate=   4.1kbits/s speed=0.0107x elapsed=0:01:41.86    \nframe=  133 fps=1.3 q=34.0 size=       1KiB time=00:00:01.10 bitrate=   4.1kbits/s speed=0.0107x elapsed=0:01:42.38    \nframe=  134 fps=1.3 q=39.0 size=       1KiB time=00:00:01.10 bitrate=   4.0kbits/s speed=0.0108x elapsed=0:01:42.89    \nframe=  134 fps=1.3 q=39.0 size=       1KiB time=00:00:01.10 bitrate=   4.0kbits/s speed=0.0107x elapsed=0:01:43.41    \nframe=  135 fps=1.3 q=32.0 size=       1KiB time=00:00:01.11 bitrate=   4.0kbits/s speed=0.0107x elapsed=0:01:43.93    \nframe=  136 fps=1.3 q=39.0 size=       1KiB time=00:00:01.12 bitrate=   4.0kbits/s speed=0.0108x elapsed=0:01:44.44    \nframe=  136 fps=1.3 q=39.0 size=       1KiB time=00:00:01.12 bitrate=   4.0kbits/s speed=0.0107x elapsed=0:01:44.95    \nframe=  138 fps=1.3 q=38.0 size=       1KiB time=00:00:01.14 bitrate=   3.9kbits/s speed=0.0108x elapsed=0:01:45.48    \nframe=  138 fps=1.3 q=38.0 size=       1KiB time=00:00:01.14 bitrate=   3.9kbits/s speed=0.0108x elapsed=0:01:45.98    \nframe=  139 fps=1.3 q=35.0 size=       1KiB time=00:00:01.15 bitrate=   3.9kbits/s speed=0.0108x elapsed=0:01:46.50    \nframe=  140 fps=1.3 q=38.0 size=       1KiB time=00:00:01.15 bitrate=   3.9kbits/s speed=0.0108x elapsed=0:01:47.02    \nframe=  141 fps=1.3 q=31.0 size=       1KiB time=00:00:01.16 bitrate=   3.8kbits/s speed=0.0108x elapsed=0:01:47.54    \nframe=  144 fps=1.3 q=38.0 size=       1KiB time=00:00:01.19 bitrate=   3.8kbits/s speed=0.011x elapsed=0:01:48.06    \nframe=  145 fps=1.3 q=16.0 size=       1KiB time=00:00:01.20 bitrate=   3.7kbits/s speed=0.0111x elapsed=0:01:48.57    \nframe=  147 fps=1.3 q=35.0 size=       1KiB time=00:00:01.21 bitrate=   3.7kbits/s speed=0.0112x elapsed=0:01:49.09    \nframe=  148 fps=1.4 q=38.0 size=       1KiB time=00:00:01.22 bitrate=   3.7kbits/s speed=0.0112x elapsed=0:01:49.62    \nframe=  149 fps=1.4 q=32.0 size=       1KiB time=00:00:01.23 bitrate=   3.6kbits/s speed=0.0112x elapsed=0:01:50.13    \nframe=  150 fps=1.4 q=37.0 size=       1KiB time=00:00:01.24 bitrate=   3.6kbits/s speed=0.0112x elapsed=0:01:50.64    \nframe=  150 fps=1.3 q=37.0 size=       1KiB time=00:00:01.24 bitrate=   3.6kbits/s speed=0.0112x elapsed=0:01:51.16    \nframe=  151 fps=1.4 q=35.0 size=       1KiB time=00:00:01.25 bitrate=   3.6kbits/s speed=0.0112x elapsed=0:01:51.70    \nframe=  151 fps=1.3 q=35.0 size=       1KiB time=00:00:01.25 bitrate=   3.6kbits/s speed=0.0111x elapsed=0:01:52.24    \nframe=  153 fps=1.4 q=26.0 size=       1KiB time=00:00:01.25 bitrate=   3.6kbits/s speed=0.0112x elapsed=0:01:52.75    \nframe=  155 fps=1.4 q=35.0 size=       1KiB time=00:00:01.28 bitrate=   3.5kbits/s speed=0.0113x elapsed=0:01:53.31    \nframe=  155 fps=1.4 q=35.0 size=       1KiB time=00:00:01.28 bitrate=   3.5kbits/s speed=0.0113x elapsed=0:01:53.83    \nframe=  156 fps=1.4 q=37.0 size=       1KiB time=00:00:01.29 bitrate=   3.5kbits/s speed=0.0113x elapsed=0:01:54.34    \nframe=  159 fps=1.4 q=33.0 size=       1KiB time=00:00:01.30 bitrate=   3.4kbits/s speed=0.0113x elapsed=0:01:54.88    \nframe=  159 fps=1.4 q=33.0 size=       1KiB time=00:00:01.31 bitrate=   3.4kbits/s speed=0.0114x elapsed=0:01:55.45    \nframe=  159 fps=1.4 q=33.0 size=       1KiB time=00:00:01.31 bitrate=   3.4kbits/s speed=0.0114x elapsed=0:01:55.97    \nframe=  161 fps=1.4 q=13.0 size=       1KiB time=00:00:01.32 bitrate=   3.4kbits/s speed=0.0114x elapsed=0:01:56.48    \nframe=  162 fps=1.4 q=37.0 size=       1KiB time=00:00:01.34 bitrate=   3.3kbits/s speed=0.0115x elapsed=0:01:57.00    \nframe=  163 fps=1.4 q=35.0 size=       1KiB time=00:00:01.35 bitrate=   3.3kbits/s speed=0.0115x elapsed=0:01:57.51    \nframe=  165 fps=1.4 q=32.0 size=       1KiB time=00:00:01.36 bitrate=   3.3kbits/s speed=0.0116x elapsed=0:01:58.04    \nframe=  166 fps=1.4 q=35.0 size=       1KiB time=00:00:01.37 bitrate=   3.3kbits/s speed=0.0116x elapsed=0:01:58.57    \nframe=  166 fps=1.4 q=35.0 size=       1KiB time=00:00:01.37 bitrate=   3.3kbits/s speed=0.0115x elapsed=0:01:59.10    \nframe=  167 fps=1.4 q=32.0 size=       1KiB time=00:00:01.38 bitrate=   3.2kbits/s speed=0.0116x elapsed=0:01:59.65    \nframe=  167 fps=1.4 q=32.0 size=       1KiB time=00:00:01.38 bitrate=   3.2kbits/s speed=0.0115x elapsed=0:02:00.22    \nframe=  168 fps=1.4 q=35.0 size=       1KiB time=00:00:01.39 bitrate=   3.2kbits/s speed=0.0115x elapsed=0:02:00.74    \nframe=  170 fps=1.4 q=37.0 size=       1KiB time=00:00:01.40 bitrate=   3.2kbits/s speed=0.0116x elapsed=0:02:01.32    \nframe=  171 fps=1.4 q=35.0 size=       1KiB time=00:00:01.41 bitrate=   3.2kbits/s speed=0.0116x elapsed=0:02:01.91    \nframe=  171 fps=1.4 q=35.0 size=       1KiB time=00:00:01.41 bitrate=   3.2kbits/s speed=0.0116x elapsed=0:02:02.50    \nframe=  173 fps=1.4 q=31.0 size=       1KiB time=00:00:01.43 bitrate=   3.1kbits/s speed=0.0116x elapsed=0:02:03.10    \nframe=  175 fps=1.4 q=33.0 size=       1KiB time=00:00:01.44 bitrate=   3.1kbits/s speed=0.0117x elapsed=0:02:03.62    \nframe=  176 fps=1.4 q=36.0 size=       1KiB time=00:00:01.45 bitrate=   3.1kbits/s speed=0.0117x elapsed=0:02:04.18    \nframe=  178 fps=1.4 q=37.0 size=       1KiB time=00:00:01.47 bitrate=   3.0kbits/s speed=0.0118x elapsed=0:02:04.71    \nframe=  180 fps=1.4 q=37.0 size=       1KiB time=00:00:01.49 bitrate=   3.0kbits/s speed=0.0119x elapsed=0:02:05.30    \nframe=  181 fps=1.4 q=33.0 size=       1KiB time=00:00:01.50 bitrate=   3.0kbits/s speed=0.0119x elapsed=0:02:05.84    \nframe=  182 fps=1.4 q=37.0 size=       1KiB time=00:00:01.50 bitrate=   3.0kbits/s speed=0.0119x elapsed=0:02:06.44    \nframe=  184 fps=1.4 q=37.0 size=       1KiB time=00:00:01.52 bitrate=   2.9kbits/s speed=0.012x elapsed=0:02:06.98    \nframe=  186 fps=1.5 q=37.0 size=       1KiB time=00:00:01.53 bitrate=   2.9kbits/s speed=0.012x elapsed=0:02:07.50    \nframe=  187 fps=1.5 q=36.0 size=       1KiB time=00:00:01.55 bitrate=   2.9kbits/s speed=0.0121x elapsed=0:02:08.01    \nframe=  189 fps=1.5 q=33.0 size=       1KiB time=00:00:01.56 bitrate=   2.9kbits/s speed=0.0122x elapsed=0:02:08.54    \nframe=  191 fps=1.5 q=32.0 size=       1KiB time=00:00:01.58 bitrate=   2.8kbits/s speed=0.0123x elapsed=0:02:09.08    \nframe=  191 fps=1.5 q=32.0 size=       1KiB time=00:00:01.58 bitrate=   2.8kbits/s speed=0.0122x elapsed=0:02:09.59    \nframe=  193 fps=1.5 q=15.0 size=       1KiB time=00:00:01.60 bitrate=   2.8kbits/s speed=0.0123x elapsed=0:02:10.13    \nframe=  194 fps=1.5 q=37.0 size=       1KiB time=00:00:01.60 bitrate=   2.8kbits/s speed=0.0123x elapsed=0:02:10.68    \nframe=  197 fps=1.5 q=32.0 size=       1KiB time=00:00:01.62 bitrate=   2.8kbits/s speed=0.0124x elapsed=0:02:11.20    \nframe=  198 fps=1.5 q=37.0 size=       1KiB time=00:00:01.64 bitrate=   2.7kbits/s speed=0.0125x elapsed=0:02:11.79    \nframe=  198 fps=1.5 q=37.0 size=       1KiB time=00:00:01.64 bitrate=   2.7kbits/s speed=0.0124x elapsed=0:02:12.37    \nframe=  199 fps=1.5 q=35.0 size=       1KiB time=00:00:01.65 bitrate=   2.7kbits/s speed=0.0124x elapsed=0:02:12.94    \nframe=  200 fps=1.5 q=37.0 size=       1KiB time=00:00:01.65 bitrate=   2.7kbits/s speed=0.0124x elapsed=0:02:13.47    \nframe=  202 fps=1.5 q=37.0 size=       1KiB time=00:00:01.67 bitrate=   2.7kbits/s speed=0.0125x elapsed=0:02:14.07    \nframe=  205 fps=1.5 q=31.0 size=       1KiB time=00:00:01.70 bitrate=   2.6kbits/s speed=0.0126x elapsed=0:02:14.61    \nframe=  207 fps=1.5 q=35.0 size=       1KiB time=00:00:01.71 bitrate=   2.6kbits/s speed=0.0127x elapsed=0:02:15.15    \nframe=  209 fps=1.5 q=14.0 size=       1KiB time=00:00:01.73 bitrate=   2.6kbits/s speed=0.0128x elapsed=0:02:15.65    \nframe=  209 fps=1.5 q=14.0 size=       1KiB time=00:00:01.73 bitrate=   2.6kbits/s speed=0.0127x elapsed=0:02:16.21    \nframe=  211 fps=1.5 q=36.0 size=       1KiB time=00:00:01.73 bitrate=   2.6kbits/s speed=0.0127x elapsed=0:02:16.77    \nframe=  213 fps=1.6 q=33.0 size=       1KiB time=00:00:01.76 bitrate=   2.5kbits/s speed=0.0129x elapsed=0:02:17.35    \nframe=  213 fps=1.5 q=33.0 size=       1KiB time=00:00:01.76 bitrate=   2.5kbits/s speed=0.0128x elapsed=0:02:17.96    \nframe=  215 fps=1.6 q=31.0 size=       1KiB time=00:00:01.78 bitrate=   2.5kbits/s speed=0.0129x elapsed=0:02:18.52    \nframe=  217 fps=1.6 q=27.0 size=       1KiB time=00:00:01.80 bitrate=   2.5kbits/s speed=0.0129x elapsed=0:02:19.03    \nframe=  217 fps=1.6 q=27.0 size=       1KiB time=00:00:01.80 bitrate=   2.5kbits/s speed=0.0129x elapsed=0:02:19.56    \nframe=  217 fps=1.5 q=27.0 size=       1KiB time=00:00:01.80 bitrate=   2.5kbits/s speed=0.0128x elapsed=0:02:20.08    \nframe=  217 fps=1.5 q=27.0 size=       1KiB time=00:00:01.80 bitrate=   2.5kbits/s speed=0.0128x elapsed=0:02:20.62    \nframe=  221 fps=1.6 q=30.0 size=       1KiB time=00:00:01.83 bitrate=   2.4kbits/s speed=0.013x elapsed=0:02:21.17    \nframe=  221 fps=1.6 q=30.0 size=       1KiB time=00:00:01.83 bitrate=   2.4kbits/s speed=0.0129x elapsed=0:02:21.69    \nframe=  221 fps=1.6 q=30.0 size=       1KiB time=00:00:01.83 bitrate=   2.4kbits/s speed=0.0129x elapsed=0:02:22.26    \nframe=  225 fps=1.6 q=15.0 size=       1KiB time=00:00:01.86 bitrate=   2.4kbits/s speed=0.0131x elapsed=0:02:22.81    \nframe=  225 fps=1.6 q=15.0 size=       1KiB time=00:00:01.86 bitrate=   2.4kbits/s speed=0.013x elapsed=0:02:23.36    \nframe=  225 fps=1.6 q=15.0 size=       1KiB time=00:00:01.86 bitrate=   2.4kbits/s speed=0.013x elapsed=0:02:23.89    \nframe=  225 fps=1.6 q=15.0 size=       1KiB time=00:00:01.86 bitrate=   2.4kbits/s speed=0.0129x elapsed=0:02:24.45    \nframe=  229 fps=1.6 q=33.0 size=       1KiB time=00:00:01.90 bitrate=   2.4kbits/s speed=0.0131x elapsed=0:02:25.03    \nframe=  229 fps=1.6 q=33.0 size=       1KiB time=00:00:01.90 bitrate=   2.4kbits/s speed=0.0131x elapsed=0:02:25.57    \nframe=  229 fps=1.6 q=33.0 size=       1KiB time=00:00:01.90 bitrate=   2.4kbits/s speed=0.013x elapsed=0:02:26.11    \nframe=  229 fps=1.6 q=33.0 size=       1KiB time=00:00:01.90 bitrate=   2.4kbits/s speed=0.013x elapsed=0:02:26.65    \nframe=  231 fps=1.6 q=30.0 size=       1KiB time=00:00:01.91 bitrate=   2.3kbits/s speed=0.013x elapsed=0:02:27.17    \nframe=  233 fps=1.6 q=27.0 size=       1KiB time=00:00:01.93 bitrate=   2.3kbits/s speed=0.0131x elapsed=0:02:27.68    \nframe=  233 fps=1.6 q=27.0 size=       1KiB time=00:00:01.93 bitrate=   2.3kbits/s speed=0.013x elapsed=0:02:28.20    \nframe=  233 fps=1.6 q=27.0 size=       1KiB time=00:00:01.93 bitrate=   2.3kbits/s speed=0.013x elapsed=0:02:28.72    \nframe=  235 fps=1.6 q=34.0 size=       1KiB time=00:00:01.95 bitrate=   2.3kbits/s speed=0.0131x elapsed=0:02:29.29    \nframe=  237 fps=1.6 q=30.0 size=       1KiB time=00:00:01.96 bitrate=   2.3kbits/s speed=0.0131x elapsed=0:02:29.84    \nframe=  237 fps=1.6 q=30.0 size=       1KiB time=00:00:01.96 bitrate=   2.3kbits/s speed=0.0131x elapsed=0:02:30.37    \nframe=  239 fps=1.6 q=32.0 size=       1KiB time=00:00:01.98 bitrate=   2.3kbits/s speed=0.0131x elapsed=0:02:30.89    \nframe=  241 fps=1.6 q=15.0 size=       1KiB time=00:00:02.00 bitrate=   2.2kbits/s speed=0.0132x elapsed=0:02:31.40    \nframe=  243 fps=1.6 q=35.0 size=       1KiB time=00:00:02.01 bitrate=   2.2kbits/s speed=0.0133x elapsed=0:02:31.95    \nframe=  245 fps=1.6 q=32.0 size=       1KiB time=00:00:02.03 bitrate=   2.2kbits/s speed=0.0133x elapsed=0:02:32.50    \nframe=  245 fps=1.6 q=32.0 size=       1KiB time=00:00:02.03 bitrate=   2.2kbits/s speed=0.0133x elapsed=0:02:33.06    \nframe=  247 fps=1.6 q=35.0 size=       1KiB time=00:00:02.05 bitrate=   2.2kbits/s speed=0.0133x elapsed=0:02:33.58    \nframe=  249 fps=1.6 q=26.0 size=       1KiB time=00:00:02.06 bitrate=   2.2kbits/s speed=0.0134x elapsed=0:02:34.10    \nframe=  249 fps=1.6 q=26.0 size=       1KiB time=00:00:02.06 bitrate=   2.2kbits/s speed=0.0134x elapsed=0:02:34.62    \nframe=  249 fps=1.6 q=26.0 size=       1KiB time=00:00:02.06 bitrate=   2.2kbits/s speed=0.0133x elapsed=0:02:35.19    \nframe=  249 fps=1.6 q=26.0 size=       1KiB time=00:00:02.06 bitrate=   2.2kbits/s speed=0.0133x elapsed=0:02:35.70    \nframe=  249 fps=1.6 q=26.0 size=       1KiB time=00:00:02.06 bitrate=   2.2kbits/s speed=0.0132x elapsed=0:02:36.23    \nframe=  253 fps=1.6 q=29.0 size=       1KiB time=00:00:02.10 bitrate=   2.1kbits/s speed=0.0134x elapsed=0:02:36.76    \nframe=  253 fps=1.6 q=29.0 size=       1KiB time=00:00:02.10 bitrate=   2.1kbits/s speed=0.0134x elapsed=0:02:37.27    \nframe=  253 fps=1.6 q=29.0 size=       1KiB time=00:00:02.10 bitrate=   2.1kbits/s speed=0.0133x elapsed=0:02:37.93    \nframe=  255 fps=1.6 q=30.0 size=       1KiB time=00:00:02.11 bitrate=   2.1kbits/s speed=0.0134x elapsed=0:02:38.51    \nframe=  257 fps=1.6 q=14.0 size=       1KiB time=00:00:02.13 bitrate=   2.1kbits/s speed=0.0134x elapsed=0:02:39.03    \nframe=  257 fps=1.6 q=14.0 size=       1KiB time=00:00:02.13 bitrate=   2.1kbits/s speed=0.0134x elapsed=0:02:39.57    \nframe=  261 fps=1.6 q=31.0 size=       1KiB time=00:00:02.16 bitrate=   2.1kbits/s speed=0.0135x elapsed=0:02:40.10    \nframe=  261 fps=1.6 q=31.0 size=       1KiB time=00:00:02.16 bitrate=   2.1kbits/s speed=0.0135x elapsed=0:02:40.67    \nframe=  261 fps=1.6 q=31.0 size=       1KiB time=00:00:02.16 bitrate=   2.1kbits/s speed=0.0134x elapsed=0:02:41.25    \nframe=  263 fps=1.6 q=27.0 size=       1KiB time=00:00:02.18 bitrate=   2.1kbits/s speed=0.0135x elapsed=0:02:41.78    \nframe=  265 fps=1.6 q=25.0 size=       1KiB time=00:00:02.20 bitrate=   2.0kbits/s speed=0.0136x elapsed=0:02:42.30    \nframe=  265 fps=1.6 q=25.0 size=       1KiB time=00:00:02.20 bitrate=   2.0kbits/s speed=0.0135x elapsed=0:02:42.84    \nframe=  265 fps=1.6 q=25.0 size=       1KiB time=00:00:02.20 bitrate=   2.0kbits/s speed=0.0135x elapsed=0:02:43.36    \nframe=  265 fps=1.6 q=25.0 size=       1KiB time=00:00:02.20 bitrate=   2.0kbits/s speed=0.0134x elapsed=0:02:43.88    \nframe=  269 fps=1.6 q=27.0 size=       1KiB time=00:00:02.23 bitrate=   2.0kbits/s speed=0.0136x elapsed=0:02:44.39    \nframe=  269 fps=1.6 q=27.0 size=       1KiB time=00:00:02.23 bitrate=   2.0kbits/s speed=0.0135x elapsed=0:02:44.95    \nframe=  271 fps=1.6 q=31.0 size=       1KiB time=00:00:02.25 bitrate=   2.0kbits/s speed=0.0136x elapsed=0:02:45.48    \nframe=  273 fps=1.6 q=12.0 size=       1KiB time=00:00:02.26 bitrate=   2.0kbits/s speed=0.0137x elapsed=0:02:46.00    \nframe=  273 fps=1.6 q=12.0 size=       1KiB time=00:00:02.26 bitrate=   2.0kbits/s speed=0.0136x elapsed=0:02:46.56    \nframe=  277 fps=1.7 q=31.0 size=       1KiB time=00:00:02.30 bitrate=   1.9kbits/s speed=0.0138x elapsed=0:02:47.09    \nframe=  279 fps=1.7 q=33.0 size=       1KiB time=00:00:02.31 bitrate=   1.9kbits/s speed=0.0138x elapsed=0:02:47.61    \nframe=  281 fps=1.7 q=30.0 size=       1KiB time=00:00:02.33 bitrate=   1.9kbits/s speed=0.0139x elapsed=0:02:48.16    \nframe=  281 fps=1.7 q=30.0 size=       1KiB time=00:00:02.33 bitrate=   1.9kbits/s speed=0.0138x elapsed=0:02:48.71    \nframe=  281 fps=1.7 q=30.0 size=       1KiB time=00:00:02.33 bitrate=   1.9kbits/s speed=0.0138x elapsed=0:02:49.27    \nframe=  285 fps=1.7 q=32.0 size=       1KiB time=00:00:02.36 bitrate=   1.9kbits/s speed=0.0139x elapsed=0:02:49.82    \nframe=  287 fps=1.7 q=33.0 size=       1KiB time=00:00:02.38 bitrate=   1.9kbits/s speed=0.014x elapsed=0:02:50.44    \n[out#0/matroska @ 00000241d24a90c0] video:2409KiB audio:0KiB subtitle:0KiB other streams:0KiB global headers:0KiB muxing overhead: 0.081061%\nframe=  300 fps=1.8 q=34.0 Lsize=    2411KiB time=00:00:02.49 bitrate=7928.1kbits/s speed=0.0146x elapsed=0:02:51.01    \n",
  "seconds": 172.48922514915466,
  "probe_out": {}
}